<svg width="231" height="87" viewBox="0 0 231 87" fill="none" xmlns="http://www.w3.org/2000/svg">
<path d="M229.268 -1V75C229.268 81.0751 224.343 86 218.268 86H12C5.92487 86 1 81.0751 1 75V-1H229.268Z" fill="#11928F" fill-opacity="0.02" stroke="#11928F" stroke-width="2"/>
<path d="M190.843 22.0039C190.862 21.8562 190.837 21.7053 190.769 21.5699C190.705 21.4375 190.6 21.3205 190.461 21.2405C190.344 21.1727 190.212 21.1358 190.077 21.1358H182.944C182.738 21.1358 182.544 21.2189 182.399 21.3605C182.35 21.4067 182.31 21.4621 182.276 21.5237L156.171 66.7398C156.038 66.9707 156.038 67.2416 156.146 67.4633C156.211 67.5956 156.315 67.7126 156.454 67.7926C156.482 67.808 156.515 67.8173 156.546 67.8327C156.608 67.8573 156.672 67.8758 156.737 67.885C156.771 67.8881 156.802 67.8973 156.836 67.8973H163.968C164.036 67.8973 164.104 67.8881 164.168 67.8696C164.362 67.8173 164.532 67.688 164.636 67.5094L190.745 22.2933C190.8 22.2009 190.831 22.1024 190.843 22.0039Z" fill="#11928F"/>
<path d="M144.174 22.4533L163.51 41.789C163.623 41.9029 163.762 41.9737 163.91 42.0014C163.959 42.0106 164.008 42.0168 164.058 42.0168C164.255 42.0168 164.452 41.9429 164.602 41.7921C164.627 41.7674 164.649 41.7428 164.667 41.7182C164.689 41.6905 164.707 41.6628 164.722 41.632L175.888 22.2963C175.94 22.2039 175.974 22.1054 175.986 22.0069C176.005 21.8592 175.98 21.7083 175.913 21.5729C175.848 21.4405 175.743 21.3235 175.605 21.2435C175.488 21.1727 175.355 21.1357 175.22 21.1357H144.719C144.614 21.1357 144.512 21.1573 144.42 21.1973C144.374 21.2158 144.331 21.2404 144.288 21.2681C144.082 21.4066 143.946 21.6406 143.946 21.9084C143.946 22.1116 144.029 22.3086 144.174 22.4533Z" fill="#11928F"/>
<path d="M206.494 66.5795L184.779 44.8642C184.665 44.7503 184.526 44.6795 184.378 44.6518C184.234 44.6241 184.08 44.6364 183.941 44.6949C183.849 44.7318 183.76 44.7903 183.686 44.8642C183.639 44.9104 183.599 44.9658 183.566 45.0243L171.027 66.7396C170.922 66.9243 170.898 67.1336 170.95 67.3245C171.002 67.5153 171.126 67.6847 171.31 67.7924C171.338 67.8078 171.372 67.817 171.403 67.8324C171.464 67.8571 171.529 67.8755 171.594 67.8848C171.627 67.8878 171.658 67.8971 171.692 67.8971H205.946C206.371 67.8971 206.719 67.5523 206.719 67.1244C206.722 66.9212 206.639 66.7242 206.494 66.5795Z" fill="#11928F"/>
<path d="M141.603 54.3798C141.486 54.3121 141.354 54.2783 141.219 54.2783H137.06C136.992 54.2783 136.921 54.2875 136.857 54.306C136.792 54.3244 136.73 54.3491 136.672 54.3829C136.555 54.4507 136.459 54.5461 136.392 54.6661L129.419 66.7429C129.207 67.1123 129.333 67.5833 129.702 67.7957C129.819 67.8634 129.952 67.9004 130.087 67.9004H134.246C134.523 67.9004 134.779 67.7526 134.914 67.5125L141.887 55.4388C141.994 55.2541 142.016 55.0448 141.964 54.8508C141.914 54.6569 141.788 54.4845 141.603 54.3798Z" fill="#11928F"/>
<path d="M107.106 50.3132C107.226 50.3809 107.359 50.4178 107.494 50.4178H159.206C159.412 50.4178 159.606 50.3347 159.751 50.1931C159.8 50.1469 159.84 50.0915 159.874 50.0299L161.955 46.4282C162.007 46.3358 162.041 46.2373 162.053 46.1388C162.059 46.0895 162.059 46.0403 162.056 45.991C162.05 45.8925 162.022 45.794 161.979 45.7047C161.915 45.5724 161.81 45.4554 161.672 45.3723C161.555 45.3045 161.419 45.2707 161.284 45.2707H109.575C109.298 45.2707 109.042 45.4184 108.904 45.6555L106.826 49.2573C106.611 49.6267 106.74 50.1007 107.106 50.3132Z" fill="#11928F"/>
<path d="M40.578 54.3798C40.461 54.3121 40.3286 54.2782 40.1932 54.2782H36.0311C35.7572 54.2782 35.5016 54.4229 35.3631 54.663L28.3904 66.7397C28.178 67.1091 28.3042 67.5801 28.6737 67.7925C28.7906 67.8603 28.923 67.8972 29.0585 67.8972H33.2205C33.4945 67.8972 33.75 67.7494 33.8885 67.5093L40.8612 55.4357C41.0736 55.0663 40.9474 54.5922 40.578 54.3798Z" fill="#11928F"/>
<path d="M77.7191 54.3796C77.6021 54.3119 77.4698 54.2781 77.3343 54.2781H73.1753C72.8983 54.2781 72.6428 54.4227 72.5042 54.6629L68.059 62.3651H68.0559C68.0559 62.3651 68.0559 62.3651 68.0559 62.362L67.3879 62.7468H57.2844L56.6164 61.5894L60.172 55.4325C60.3844 55.0631 60.2582 54.589 59.8888 54.3766C59.7718 54.3088 59.6394 54.275 59.504 54.275H55.3419C55.0679 54.275 54.8124 54.4197 54.6739 54.6598L47.7012 66.7365C47.4888 67.1059 47.615 67.5769 47.9844 67.7893C48.1014 67.8571 48.2338 67.894 48.3693 67.894H70.3586C70.6356 67.894 70.888 67.7462 71.0266 67.5061L77.9992 55.4325C78.2147 55.0661 78.0885 54.5921 77.7191 54.3796Z" fill="#11928F"/>
<path d="M81.1239 50.0299L83.2019 46.4282C83.4143 46.0588 83.2881 45.5878 82.9187 45.3723C82.8017 45.3045 82.6693 45.2707 82.5339 45.2707H26.3739C26.0999 45.2707 25.8444 45.4184 25.7058 45.6555L23.6248 49.2573C23.4124 49.6267 23.5386 50.1007 23.908 50.3132C24.025 50.3809 24.1605 50.4178 24.2959 50.4178H80.4528C80.7299 50.4178 80.9854 50.2701 81.1239 50.0299Z" fill="#11928F"/>
<path d="M117.397 62.8547C117.28 62.787 117.148 62.7501 117.012 62.7501H87.0007L86.3327 61.5926L95.0878 46.4282C95.3002 46.0588 95.174 45.5878 94.8046 45.3723C94.6876 45.3045 94.5552 45.2707 94.4198 45.2707H90.2608C89.9837 45.2707 89.7282 45.4184 89.5897 45.6555L77.4175 66.7397C77.2051 67.1091 77.3313 67.5801 77.7008 67.7925C77.8177 67.8603 77.9532 67.8972 78.0886 67.8972H114.931C115.208 67.8972 115.464 67.7494 115.603 67.5093L117.68 63.9076C117.893 63.5381 117.767 63.0671 117.397 62.8547Z" fill="#11928F"/>
<path d="M122.292 54.3798C122.172 54.3121 122.039 54.2782 121.904 54.2782H104.372C104.098 54.2782 103.843 54.4229 103.704 54.663L101.626 58.2648C101.411 58.6342 101.537 59.1052 101.906 59.3207C102.023 59.3884 102.159 59.4223 102.294 59.4223H119.826C120.1 59.4223 120.355 59.2776 120.494 59.0375L122.572 55.4357C122.787 55.0663 122.658 54.5922 122.292 54.3798Z" fill="#11928F"/>
</svg>
